# Made using Asset Forge (www.assetforge.io) version 1.3 

mtllib spacecraft.mtl 

g (0.0, 0.0, 0.0)

v -0.5 0.5 -0.838167
v -0.5 0.9034387 -0.838167
v -0.5 0.5 -0.5
v -0.5 0.9034387 -0.5
v -0.4034387 1 -0.838167
v -0.4034387 1 -0.5
v 0.4034387 1 -0.838167
v 0.5 0.9034387 -0.838167
v 0.4034387 1 -0.5
v 0.5 0.9034387 -0.5
v 0.5 0.5 -0.838167
v 0.5 0.5 -0.5
v 0.3503764 0.8395392 -1.143788
v -0.3503764 0.8395392 -1.143788
v -0.2017194 0.235 -2
v 0.2017194 0.235 -2
v -0.2017194 0.39 -2
v 0.2017194 0.39 -2
v -0.4628778 0.8395392 -0.9827617
v 0.303336 0.6972889 -1.414724
v 0.3802379 0.6972889 -1.304652
v -0.3802379 0.6972889 -1.304652
v -0.303336 0.6972889 -1.414724
v 0.4563004 0.8282174 -1.008381
v 0.4034387 0 -0.5
v -0.4034387 0 -0.5
v 0.5 0.09656126 -0.5
v -0.5 0.09656126 -0.5
v 0.5 0.09656126 -0.838167
v 0.4034387 0 -0.838167
v -0.4034387 0 -0.838167
v -0.5 0.09656126 -0.838167
v 0.2017194 0.08 -2
v -0.2017194 0.08 -2
vn -1 0 0
vn -0.7071066 0.7071069 0
vn 0.7071066 0.7071069 0
vn 0 1 0
vn 1 0 0
vn 0 0.7856177 -0.9280684
vn 0 0.7856178 -0.9280684
vn 0 0 -1.5
vn -0.5681209 0.5681209 -0.89307
vn -0.5681209 0.5681208 -0.89307
vn -0.5681208 0.568121 -0.8930699
vn 0.5681208 0.5681209 -0.89307
vn 0.5681208 0.568121 -0.89307
vn -0.5681208 0.568121 -0.8930699
vn -0.5681208 0.5681209 -0.89307
vn 0.5681208 0.568121 -0.8930699
vn 0 0 1.5
vn 0.9331942 0 -0.5390587
vn 0.9331942 0 -0.5390586
vn 0.9331942 0 -0.5390584
vn -0.9331942 0 -0.5390584
vn -0.9331942 0 -0.5390585
vn -0.9331942 0 -0.5390586
vn 0.7015131 -0.7015132 -0.1883005
vn 0.7046306 -0.7046306 -0.1254222
vn 0.7071068 -0.7071068 0
vn 0 -1 0
vn 0 -0.9994121 -0.05142978
vn 0 -0.997646 -0.1028595
vn -0.7071068 -0.7071068 0
vn -0.7046306 -0.7046306 -0.1254222
vn -0.7015131 -0.7015132 -0.1883005
vn 0.6848206 -0.6848207 -0.3736219
vn -0.6848206 -0.6848207 -0.3736219
vn 0 -0.9947084 -0.1541078
vt -0.838167 0.5
vt -0.838167 0.9034387
vt -0.5 0.5
vt -0.5 0.9034387
vt 0.5 -0.838167
vt 0.4034387 -0.838167
vt 0.5 -0.5
vt 0.4034387 -0.5
vt -0.4034387 -0.838167
vt -0.5 -0.838167
vt -0.4034387 -0.5
vt -0.5 -0.5
vt 0.838167 0.9034387
vt 0.838167 0.5
vt 0.5 0.9034387
vt 0.5 0.5
vt -0.3503764 -1.143788
vt 0.3503764 -1.143788
vt 0.2017194 0.235
vt -0.2017194 0.235
vt 0.2017194 0.39
vt -0.2017194 0.39
vt -0.9827617 0.8395392
vt -1.143788 0.8395392
vt -0.303336 -1.414724
vt -0.2017194 -2
vt -0.3802379 -1.304652
vt 0.3802379 -1.304652
vt 0.2017194 -2
vt 0.303336 -1.414724
vt -0.4563004 -1.008381
vt 0.4034387 0
vt -0.4034387 0
vt 0.5 0.09656126
vt -0.5 0.09656126
vt 0.4034387 1
vt -0.4034387 1
vt 2 0.39
vt 2 0.235
vt 1.304652 0.6972889
vt 1.008381 0.8282174
vt -2 0.235
vt -2 0.39
vt -1.304652 0.6972889
vt -0.5 0.838167
vt -0.4034387 0.838167
vt -0.4034387 0.5
vt 0.4034387 0.5
vt 0.4034387 0.838167
vt 0.5 0.838167
vt -0.2017194 2
vt 0.2017194 2
vt 0.838167 0.09656126
vt 0.2017194 0.08
vt -0.2017194 0.08
vt -0.838167 0.09656126
vt 2 0.08
vt -2 0.08
vt 0.4628778 -0.9827617

usemtl _defaultMat (Instance)
usemap _defaultMat (Instance)
f 3/3/1 2/2/1 1/1/1
f 2/2/1 3/3/1 4/4/1
f 4/7/2 5/6/2 2/5/2
f 5/6/2 4/7/2 6/8/2
f 9/11/3 8/10/3 7/9/3
f 8/10/3 9/11/3 10/12/3
f 5/6/4 9/11/4 7/9/4
f 9/11/4 5/6/4 6/8/4
f 10/15/5 11/14/5 8/13/5
f 11/14/5 10/15/5 12/16/5
f 13/17/7 5/6/6 7/9/6
f 5/6/6 13/17/7 14/18/7
f 17/21/8 16/20/8 15/19/8
f 16/20/8 17/21/8 18/22/8
f 2/2/10 14/24/9 19/23/9
f 14/18/9 2/5/10 5/6/11
f 21/27/13 18/26/12 20/25/12
f 23/30/14 17/29/15 22/28/14
f 13/17/12 8/10/12 24/31/12
f 8/10/12 13/17/12 7/9/16
f 27/34/17 26/33/17 25/32/17
f 26/33/17 27/34/17 28/35/17
f 28/35/17 27/34/17 3/3/17
f 3/3/17 27/34/17 12/16/17
f 3/3/17 12/16/17 10/15/17
f 3/3/17 10/15/17 4/4/17
f 4/4/17 10/15/17 9/36/17
f 4/4/17 9/36/17 6/37/17
f 18/26/6 23/30/7 20/25/7
f 23/30/7 18/26/6 17/29/6
f 21/40/19 16/39/19 18/38/18
f 16/39/19 21/40/19 11/14/20
f 11/14/20 21/40/19 24/41/20
f 11/14/20 24/41/20 8/13/20
f 1/1/21 17/43/21 15/42/21
f 17/43/21 1/1/21 22/44/21
f 22/44/21 1/1/21 19/23/22
f 19/23/22 1/1/21 2/2/23

usemtl blueSteel (Instance)
usemap blueSteel (Instance)
f 27/3/26 30/46/25 29/45/24
f 30/46/25 27/3/26 25/47/26
f 26/48/27 30/46/28 25/47/27
f 30/46/28 26/48/27 31/49/29
f 28/16/30 31/49/31 26/48/30
f 31/49/31 28/16/30 32/50/32
f 30/46/25 33/51/33 29/45/24
f 32/50/32 34/52/34 31/49/31
f 12/16/5 29/53/5 11/14/5
f 29/53/5 12/16/5 27/34/5
f 15/19/8 33/55/8 34/54/8
f 33/55/8 15/19/8 16/20/8
f 28/35/1 1/1/1 32/56/1
f 1/1/1 28/35/1 3/3/1
f 11/14/20 33/57/20 16/39/19
f 33/57/20 11/14/20 29/53/20
f 32/56/21 15/42/21 34/58/21
f 15/42/21 32/56/21 1/1/21
f 31/49/29 33/51/35 30/46/28
f 33/51/35 31/49/29 34/52/35

usemtl glass (Instance)
usemap glass (Instance)
f 20/25/7 14/18/7 13/17/7
f 14/18/7 20/25/7 23/30/7
f 13/17/12 21/27/13 20/25/12
f 21/27/13 13/17/12 24/31/12
f 19/59/9 23/30/14 22/28/14
f 23/30/14 19/59/9 14/18/9
g (0.0, 0.0, 0.0)

v 0.4034387 0 0.5
v -0.4034387 0 0.5
v 0.5 0.09656126 0.5
v -0.5 0.09656126 0.5
v -0.5 0.5 0.5
v 0.5 0.5 0.5
v 0.5 0.9034387 0.5
v -0.5 0.9034387 0.5
v 0.4034387 1 0.5
v -0.4034387 1 0.5
vn 0 0 1
vn 0 0 -1
vn -0.7071067 -0.7071068 0
vn 0.7071067 -0.7071068 0

usemtl _defaultMat (Instance)
usemap _defaultMat (Instance)
f 37/34/36 36/33/36 35/32/36
f 36/33/36 37/34/36 38/35/36
f 38/35/36 37/34/36 39/3/36
f 39/3/36 37/34/36 40/16/36
f 39/3/36 40/16/36 41/15/36
f 39/3/36 41/15/36 42/4/36
f 42/4/36 41/15/36 43/36/36
f 42/4/36 43/36/36 44/37/36
f 43/47/3 10/12/3 9/11/3
f 10/12/3 43/47/3 41/3/3
f 41/4/5 12/16/5 10/15/5
f 12/16/5 41/4/5 40/3/5
f 6/8/4 43/47/4 9/11/4
f 43/47/4 6/8/4 44/48/4
f 28/34/37 25/33/37 26/32/37
f 25/33/37 28/34/37 27/35/37
f 27/35/37 28/34/37 3/16/37
f 27/35/37 3/16/37 12/3/37
f 12/3/37 3/16/37 4/15/37
f 12/3/37 4/15/37 10/4/37
f 10/4/37 4/15/37 6/36/37
f 10/4/37 6/36/37 9/37/37
f 42/16/2 6/8/2 4/7/2
f 6/8/2 42/16/2 44/48/2
f 39/16/1 4/4/1 3/3/1
f 4/4/1 39/16/1 42/15/1

usemtl blueSteel (Instance)
usemap blueSteel (Instance)
f 36/8/27 25/47/27 35/11/27
f 25/47/27 36/8/27 26/48/27
f 38/7/38 26/48/38 36/8/38
f 26/48/38 38/7/38 28/16/38
f 37/12/39 25/47/39 27/3/39
f 25/47/39 37/12/39 35/11/39
f 40/3/5 27/34/5 12/16/5
f 27/34/5 40/3/5 37/35/5
f 38/34/1 3/3/1 28/35/1
f 3/3/1 38/34/1 39/16/1
g (0.0, 0.0, 0.0)

v 0.5 0.5 2.5
v -0.5 0.5 2.5
v 0.5 0.9034387 2.5
v -0.5 0.9034387 2.5
v 0.4034387 1 2.5
v -0.4034387 1 2.5
vn 0 0 2
vn 0 0 -2
vn -0.6799791 -0.6799791 0.5486599
vn 0.6799791 -0.6799791 0.5486598
vn 0 -0.8944272 0.8944272
vt -0.4034387 2.5
vt 0.4034387 2.5
vt 0.5 2.5
vt -0.5 2.5
vt 2.5 0.9034387
vt -2.5 0.9034387
vt 0.5 -2.5
vt -0.5 -2.5
vt -2.5 0.5
vt 2.5 0.5

usemtl _defaultMat (Instance)
usemap _defaultMat (Instance)
f 47/15/40 46/3/40 45/16/40
f 46/3/40 47/15/40 48/4/40
f 48/4/40 47/15/40 49/36/40
f 48/4/40 49/36/40 50/37/40
f 38/34/41 35/33/41 36/32/41
f 35/33/41 38/34/41 37/35/41
f 37/35/41 38/34/41 39/16/41
f 37/35/41 39/16/41 40/3/41
f 40/3/41 39/16/41 42/15/41
f 40/3/41 42/15/41 41/4/41
f 41/4/41 42/15/41 44/36/41
f 41/4/41 44/36/41 43/37/41
f 44/48/4 49/60/4 43/47/4
f 49/60/4 44/48/4 50/61/4
f 48/62/2 44/48/2 42/16/2
f 44/48/2 48/62/2 50/61/2
f 49/60/3 41/3/3 43/47/3
f 41/3/3 49/60/3 47/63/3
f 48/64/1 42/15/1 39/16/1
f 47/65/5 40/3/5 41/4/5

usemtl blueSteel (Instance)
usemap blueSteel (Instance)
f 46/66/42 38/7/42 36/8/42
f 35/11/43 37/12/43 45/67/43
f 47/65/5 37/35/5 40/3/5
f 37/35/5 47/65/5 45/68/5
f 46/66/44 35/11/44 45/67/44
f 35/11/44 46/66/44 36/8/44
f 38/34/1 48/64/1 39/16/1
f 48/64/1 38/34/1 46/69/1
g (0.0, 0.0, 0.0)

v 1.5 0.6 0
v 1.5 0.5 0
v 1.5 0.6 0.5
v 1.5 0.5 0.5
v 0.5 0.5 0
v 0.5 0.6 0
v 0.5 0.6 0.5
v 1.5 0.5 -0.5
v 0.5 0.6 -0.5
v 1.5 0.6 -0.5
vt 0 0.6
vt 0 0.5
vt -0.5 0.6
vt 0.5 0.6
vt 1.5 0.5
vt 1.5 0.6
vt -1.5 -0.5
vt -1.5 0
vt -0.5 0
vt -1.5 0.5
vt -1.5 0.6

usemtl _defaultMat (Instance)
usemap _defaultMat (Instance)
f 53/72/5 52/71/5 51/70/5
f 52/71/5 53/72/5 54/3/5
f 40/16/1 56/70/1 55/71/1
f 56/70/1 40/16/1 57/73/1
f 53/75/36 40/16/36 54/74/36
f 40/16/36 53/75/36 57/73/36
f 40/12/27 52/77/27 54/76/27
f 52/77/27 40/12/27 55/78/27
f 56/78/4 53/79/4 51/77/4
f 53/79/4 56/78/4 57/3/4

usemtl blueSteel (Instance)
usemap blueSteel (Instance)
f 59/72/37 58/79/37 12/3/37
f 58/79/37 59/72/37 60/80/37
f 55/71/1 59/72/1 12/3/1
f 59/72/1 55/71/1 56/70/1
f 55/78/27 58/79/27 52/77/27
f 58/79/27 55/78/27 12/3/27
f 51/70/5 58/16/5 60/73/5
f 58/16/5 51/70/5 52/71/5
f 59/12/4 51/77/4 60/76/4
f 51/77/4 59/12/4 56/78/4
g (0.0, 0.0, 0.0)

v -0.5 0.6 0
v -0.5 0.5 0
v -0.5 0.6 0.5
v -1.5 0.5 0
v -1.5 0.6 0
v -1.5 0.5 0.5
v -1.5 0.6 0.5
v -1.5 0.5 -0.5
v -1.5 0.6 -0.5
v -0.5 0.6 -0.5
vt 0.5 0
vt 1.5 -0.5
vt 1.5 0

usemtl _defaultMat (Instance)
usemap _defaultMat (Instance)
f 63/72/5 62/71/5 61/70/5
f 62/71/5 63/72/5 39/3/5
f 66/16/1 65/70/1 64/71/1
f 65/70/1 66/16/1 67/73/1
f 63/72/36 66/79/36 39/3/36
f 66/79/36 63/72/36 67/80/36
f 66/82/27 62/81/27 39/7/27
f 62/81/27 66/82/27 64/83/27
f 65/83/4 63/16/4 61/81/4
f 63/16/4 65/83/4 67/74/4

usemtl blueSteel (Instance)
usemap blueSteel (Instance)
f 69/75/37 3/16/37 68/74/37
f 3/16/37 69/75/37 70/73/37
f 64/71/1 69/72/1 68/3/1
f 69/72/1 64/71/1 65/70/1
f 64/83/27 3/16/27 62/81/27
f 3/16/27 64/83/27 68/74/27
f 61/70/5 3/16/5 70/73/5
f 3/16/5 61/70/5 62/71/5
f 69/82/4 61/81/4 70/7/4
f 61/81/4 69/82/4 65/83/4
g (0.0, 0.0, 0.0)

v -2.5 0.5 0.5
v -2.401293 0.6 0.5
v -2.5 0.9001081 0.5
v -2.401293 0.9001081 0.5
v -2.5 0.5 0
v -2.401293 0.6 0
v -2.401293 0.9001081 0.3820946
v -2.5 0.6 0
v -2.5 0.9001081 0.3820946
v -2.5 0.5 -0.1163342
v -2.5 0.6 -0.1163342
vn 0 0.7864273 -0.6176828
vn -0.3582067 0 -0.9336423
vt -2.401293 0.6
vt -2.5 0.9001081
vt -2.401293 0.9001081
vt 2.5 -0.5
vt 2.5 0
vt 2.401293 0
vt 2.401293 0.3820946
vt 2.5 0.3820946
vt 0.3820946 0.9001081
vt 0.5 0.9001081
vt 2.401293 0.5
vt -0.3820946 0.9001081
vt -0.5 0.9001081
vt -0.1163342 0.5
vt -0.1163342 0.6
vt 2.5 0.1163342
vt 2.5 0.6
vt 2.5 -0.1163342

usemtl _defaultMat (Instance)
usemap _defaultMat (Instance)
f 67/72/5 64/71/5 65/70/5
f 64/71/5 67/72/5 66/3/5
f 67/80/36 71/68/36 66/79/36
f 71/68/36 67/80/36 72/84/36
f 71/68/36 72/84/36 73/85/36
f 73/85/36 72/84/36 74/86/36
f 71/87/27 64/83/27 66/82/27
f 64/83/27 71/87/27 75/88/27
f 78/88/45 77/90/45 76/89/45
f 77/90/45 78/88/45 79/91/45
f 71/16/1 78/70/1 75/71/1
f 78/70/1 71/16/1 79/92/1
f 79/92/1 71/16/1 73/93/1
f 79/91/4 74/94/4 77/90/4
f 74/94/4 79/91/4 73/69/4
f 77/95/5 72/72/5 76/70/5
f 72/72/5 77/95/5 74/96/5
f 76/89/4 67/74/4 65/83/4
f 67/74/4 76/89/4 72/94/4

usemtl blueSteel (Instance)
usemap blueSteel (Instance)
f 75/71/1 81/98/1 80/97/1
f 81/98/1 75/71/1 78/70/1
f 75/88/27 68/74/27 64/83/27
f 68/74/27 75/88/27 80/99/27
f 65/70/5 68/16/5 69/73/5
f 68/16/5 65/70/5 64/71/5
f 81/100/46 68/74/46 80/69/46
f 68/74/46 81/100/46 69/75/46
f 81/101/4 65/83/4 69/82/4
f 65/83/4 81/101/4 76/89/4
f 76/89/4 81/101/4 78/88/4
g (0.0, 0.0, 0.0)

v 2.5 0.5 0.5
v 2.401293 0.6 0.5
v 2.5 0.9001081 0.5
v 2.401293 0.9001081 0.5
v 2.5 0.5 0
v 2.401293 0.6 0
v 2.401293 0.9001081 0.3820946
v 2.5 0.6 0
v 2.5 0.9001081 0.3820946
v 2.5 0.5 -0.1163342
v 2.5 0.6 -0.1163342
vn 0.3582067 0 -0.9336423
vt -2.5 0
vt -2.401293 0
vt -2.401293 -0.3820946
vt -2.5 -0.3820946
vt -2.401293 -0.5
vt -2.5 -0.5
vt -2.5 -0.1163342
vt -2.5 0.1163342

usemtl _defaultMat (Instance)
usemap _defaultMat (Instance)
f 51/70/1 52/71/1 53/72/1
f 54/3/1 53/72/1 52/71/1
f 54/79/36 82/68/36 53/80/36
f 83/84/36 53/80/36 82/68/36
f 84/85/36 83/84/36 82/68/36
f 85/86/36 83/84/36 84/85/36
f 54/79/27 52/77/27 82/68/27
f 86/102/27 82/68/27 52/77/27
f 87/103/45 88/104/45 89/102/45
f 90/105/45 89/102/45 88/104/45
f 86/71/5 89/70/5 82/16/5
f 90/92/5 82/16/5 89/70/5
f 84/93/5 82/16/5 90/92/5
f 88/104/4 85/106/4 90/105/4
f 84/107/4 90/105/4 85/106/4
f 87/70/1 83/72/1 88/95/1
f 85/96/1 88/95/1 83/72/1
f 51/77/4 53/76/4 87/103/4
f 83/106/4 87/103/4 53/76/4

usemtl blueSteel (Instance)
usemap blueSteel (Instance)
f 91/97/5 92/98/5 86/71/5
f 89/70/5 86/71/5 92/98/5
f 52/77/27 58/76/27 86/102/27
f 91/108/27 86/102/27 58/76/27
f 60/73/1 58/16/1 51/70/1
f 52/71/1 51/70/1 58/16/1
f 91/69/47 58/74/47 92/100/47
f 60/75/47 92/100/47 58/74/47
f 60/79/4 51/77/4 92/109/4
f 87/103/4 92/109/4 51/77/4
f 89/102/4 92/109/4 87/103/4
g (0.0, 0.0, 0.0)

v -0.785 0.5 -0.7399999
v -0.785 0.5 -0.245
v -1.215 0.5 -0.7399999
v -1.215 0.5 -0.245
v -0.785 0.08499998 -0.245
v -0.785 0.08499998 -0.7399999
v -1.215 0.08499998 -0.245
v -1.215 0.08499998 -0.7399999
v -1.150397 0.1496027 -0.7399999
v -1.150397 0.4353973 -0.7399999
v -0.8496028 0.4353973 -0.7399999
v -0.8496028 0.1496027 -0.7399999
v -0.9097617 0.2067617 -0.61
v -1.090238 0.2067617 -0.61
v -0.9097617 0.3782383 -0.61
v -1.090238 0.3782383 -0.61
v -0.785 0.08499998 0.25
v -1.215 0.08499998 0.25
v -0.87315 0.170075 0.7399999
v -1.12685 0.170075 0.7399999
v -1.215 0.5 0.25
v -0.785 0.5 0.25
v -0.87315 0.414925 0.7399999
v -1.12685 0.414925 0.7399999
vn 0 0.9154216 -0.4024963
vn -0.9075369 0 -0.4199725
vn -0.9075369 0 -0.4199726
vn 0.9075369 0 -0.4199725
vn 0.9075369 0 -0.4199726
vn 0 -0.9154216 -0.4024963
vn 0 -0.9963082 0.08584856
vn 0 -0.98526 0.1710632
vn -0.9982445 0 0.05922689
vn -0.9929596 0 0.1184538
vn 0 0.9983622 0.05720881
vn 0 0.98526 0.1710633
vn 0 0.9934328 0.1144176
vn 0 0.98526 0.1710633
vn -0.9842008 0 0.1770557
vn 0.9982445 0 0.05922689
vn 0.9929596 0 0.1184538
vn 0.9842008 0 0.1770557
vt 0.785 -0.7399999
vt 0.785 -0.245
vt 1.215 -0.7399999
vt 1.215 -0.245
vt 0.785 0.245
vt 0.785 0.7399999
vt 1.215 0.245
vt 1.215 0.7399999
vt 0.785 0.08499998
vt 1.150397 0.1496027
vt 1.215 0.08499998
vt 1.215 0.5
vt 1.150397 0.4353973
vt 0.8496028 0.4353973
vt 0.785 0.5
vt 0.8496028 0.1496027
vt 0.8496028 -0.7399999
vt 0.9097617 -0.61
vt 1.150397 -0.7399999
vt 1.090238 -0.61
vt -0.7399999 0.1496027
vt -0.7399999 0.4353973
vt -0.61 0.2067617
vt -0.61 0.3782383
vt 0.7399999 0.4353973
vt 0.7399999 0.1496027
vt 0.61 0.3782383
vt 0.61 0.2067617
vt -0.7399999 0.08499998
vt -0.7399999 0.5
vt -0.245 0.08499998
vt -0.245 0.5
vt 0.8496028 0.7399999
vt 1.150397 0.7399999
vt 0.9097617 0.61
vt 1.090238 0.61
vt 0.7399999 0.5
vt 0.7399999 0.08499998
vt 0.245 0.5
vt 0.245 0.08499998
vt 0.785 -0.25
vt 1.215 -0.25
vt 0.87315 -0.7399999
vt 1.12685 -0.7399999
vt 0.25 0.08499998
vt 0.25 0.5
vt 0.785 0.25
vt 0.87315 0.7399999
vt 1.215 0.25
vt 1.12685 0.7399999
vt 0.7399999 0.170075
vt 0.7399999 0.414925
vt -0.25 0.5
vt -0.25 0.08499998
vt -0.7399999 0.414925
vt -0.7399999 0.170075
vt -0.87315 0.170075
vt -1.12685 0.170075
vt -0.87315 0.414925
vt -1.12685 0.414925
vt 1.090238 0.2067617
vt 0.9097617 0.2067617
vt 1.090238 0.3782383
vt 0.9097617 0.3782383

usemtl _defaultMat (Instance)
usemap _defaultMat (Instance)
f 95/112/4 94/111/4 93/110/4
f 94/111/4 95/112/4 96/113/4
f 99/116/27 98/115/27 97/114/27
f 98/115/27 99/116/27 100/117/27
f 100/120/37 101/119/37 98/118/37
f 101/119/37 100/120/37 95/121/37
f 101/119/37 95/121/37 102/122/37
f 102/122/37 95/121/37 103/123/37
f 98/118/37 104/125/37 93/124/37
f 104/125/37 98/118/37 101/119/37
f 93/124/37 104/125/37 103/123/37
f 93/124/37 103/123/37 95/121/37
f 101/128/48 105/127/48 104/126/48
f 105/127/48 101/128/48 106/129/48
f 105/132/49 103/131/49 104/130/49
f 103/131/49 105/132/49 107/133/50
f 108/136/51 101/135/51 102/134/51
f 101/135/51 108/136/51 106/137/52
f 99/140/1 95/139/1 100/138/1
f 95/139/1 99/140/1 96/141/1
f 107/144/53 102/143/53 103/142/53
f 102/143/53 107/144/53 108/145/53
f 94/148/5 98/147/5 93/146/5
f 98/147/5 94/148/5 97/149/5

usemtl blueSteel (Instance)
usemap blueSteel (Instance)
f 111/152/55 110/151/54 109/150/54
f 110/151/54 111/152/55 112/153/55
f 110/154/56 96/141/1 99/140/1
f 96/141/1 110/154/56 113/155/57
f 113/158/60 115/157/59 114/156/58
f 115/157/59 113/158/60 116/159/61
f 112/160/62 113/155/57 110/154/56
f 113/155/57 112/160/62 116/161/62
f 110/151/54 97/114/27 109/150/54
f 97/114/27 110/151/54 99/116/27
f 96/113/4 114/156/58 94/111/4
f 114/156/58 96/113/4 113/158/60
f 115/164/65 109/163/64 114/162/63
f 109/163/64 115/164/65 111/165/65
f 114/162/63 97/149/5 94/148/5
f 97/149/5 114/162/63 109/163/64
f 115/168/36 112/167/36 111/166/36
f 112/167/36 115/168/36 116/169/36

usemtl black (Instance)
usemap black (Instance)
f 108/172/37 105/171/37 106/170/37
f 105/171/37 108/172/37 107/173/37
g (0.0, 0.0, 0.0)

v 1.215 0.5 -0.7399999
v 1.215 0.5 -0.245
v 0.785 0.5 -0.7399999
v 0.785 0.5 -0.245
v 1.215 0.08499998 -0.245
v 1.215 0.08499998 -0.7399999
v 0.785 0.08499998 -0.245
v 0.785 0.08499998 -0.7399999
v 0.8496028 0.1496027 -0.7399999
v 0.8496028 0.4353973 -0.7399999
v 1.150397 0.4353973 -0.7399999
v 1.150397 0.1496027 -0.7399999
v 1.090238 0.2067617 -0.61
v 0.9097617 0.2067617 -0.61
v 1.090238 0.3782383 -0.61
v 0.9097617 0.3782383 -0.61
v 1.215 0.08499998 0.25
v 0.785 0.08499998 0.25
v 1.12685 0.170075 0.7399999
v 0.87315 0.170075 0.7399999
v 0.785 0.5 0.25
v 1.215 0.5 0.25
v 1.12685 0.414925 0.7399999
v 0.87315 0.414925 0.7399999
vt -1.215 -0.7399999
vt -1.215 -0.245
vt -0.785 -0.7399999
vt -0.785 -0.245
vt -1.215 0.245
vt -1.215 0.7399999
vt -0.785 0.245
vt -0.785 0.7399999
vt -1.215 0.08499998
vt -0.8496028 0.1496027
vt -0.785 0.08499998
vt -0.785 0.5
vt -0.8496028 0.4353973
vt -1.150397 0.4353973
vt -1.215 0.5
vt -1.150397 0.1496027
vt -1.150397 -0.7399999
vt -1.090238 -0.61
vt -0.8496028 -0.7399999
vt -0.9097617 -0.61
vt -1.150397 0.7399999
vt -0.8496028 0.7399999
vt -1.090238 0.61
vt -0.9097617 0.61
vt -1.215 -0.25
vt -0.785 -0.25
vt -1.12685 -0.7399999
vt -0.87315 -0.7399999
vt -1.215 0.25
vt -1.12685 0.7399999
vt -0.785 0.25
vt -0.87315 0.7399999
vt 1.12685 0.170075
vt 0.87315 0.170075
vt 1.12685 0.414925
vt 0.87315 0.414925
vt -0.9097617 0.2067617
vt -1.090238 0.2067617
vt -0.9097617 0.3782383
vt -1.090238 0.3782383

usemtl _defaultMat (Instance)
usemap _defaultMat (Instance)
f 119/176/4 118/175/4 117/174/4
f 118/175/4 119/176/4 120/177/4
f 123/180/27 122/179/27 121/178/27
f 122/179/27 123/180/27 124/181/27
f 124/184/37 125/183/37 122/182/37
f 125/183/37 124/184/37 119/185/37
f 125/183/37 119/185/37 126/186/37
f 126/186/37 119/185/37 127/187/37
f 122/182/37 128/189/37 117/188/37
f 128/189/37 122/182/37 125/183/37
f 117/188/37 128/189/37 127/187/37
f 117/188/37 127/187/37 119/185/37
f 125/192/48 129/191/48 128/190/48
f 129/191/48 125/192/48 130/193/48
f 129/132/49 127/131/49 128/130/49
f 127/131/49 129/132/49 131/133/50
f 132/136/51 125/135/51 126/134/51
f 125/135/51 132/136/51 130/137/52
f 123/140/1 119/139/1 124/138/1
f 119/139/1 123/140/1 120/141/1
f 131/196/53 126/195/53 127/194/53
f 126/195/53 131/196/53 132/197/53
f 118/148/5 122/147/5 117/146/5
f 122/147/5 118/148/5 121/149/5

usemtl blueSteel (Instance)
usemap blueSteel (Instance)
f 135/200/55 134/199/54 133/198/54
f 134/199/54 135/200/55 136/201/55
f 134/154/56 120/141/1 123/140/1
f 120/141/1 134/154/56 137/155/57
f 137/204/60 139/203/59 138/202/58
f 139/203/59 137/204/60 140/205/61
f 136/160/62 137/155/57 134/154/56
f 137/155/57 136/160/62 140/161/62
f 134/199/54 121/178/27 133/198/54
f 121/178/27 134/199/54 123/180/27
f 120/177/4 138/202/58 118/175/4
f 138/202/58 120/177/4 137/204/60
f 139/164/65 133/163/64 138/162/63
f 133/163/64 139/164/65 135/165/65
f 138/162/63 121/149/5 118/148/5
f 121/149/5 138/162/63 133/163/64
f 139/208/36 136/207/36 135/206/36
f 136/207/36 139/208/36 140/209/36

usemtl black (Instance)
usemap black (Instance)
f 132/212/37 129/211/37 130/210/37
f 129/211/37 132/212/37 131/213/37
g (0.0, 0.0, 0.0)

v 0.08657105 0.7 2.1
v 0.08657105 0.7 1.328558
v -0.08657105 0.7 2.1
v -0.08657105 0.7 1.328558
v -0.08657105 0.7957084 1.328558
v 0.08657105 0.7957084 1.328558
v 0.08657105 1.66 2.141809
v 0.08657105 0.9089804 2.1
v 0.08657105 0.9089804 2.608558
v 0.08657105 1.66 2.608558
v -0.08657105 0.9089804 2.608558
v -0.08657105 0.9089804 2.1
v -0.08657105 1.66 2.608558
v -0.08657105 1.66 2.141809
vn 0 -2 0
vn 0 2 0
vn 0 1.370551 -1.456568
vt -0.08657105 -2.1
vt -0.08657105 -1.328558
vt 0.08657105 -2.1
vt 0.08657105 -1.328558
vt 0.08657105 0.7
vt -0.08657105 0.7
vt 0.08657105 0.7957084
vt -0.08657105 0.7957084
vt -1.328558 0.7957084
vt -1.328558 0.7
vt -2.141809 1.66
vt -2.1 0.9089804
vt -2.608558 0.9089804
vt -2.608558 1.66
vt -2.1 0.7
vt -0.08657105 -2.608558
vt 0.08657105 -2.608558
vt -0.08657105 2.608558
vt 0.08657105 2.608558
vt -0.08657105 2.141809
vt 0.08657105 2.141809
vt 0.08657105 0.9089804
vt -0.08657105 0.9089804
vt 0.08657105 1.66
vt -0.08657105 1.66
vt 1.328558 0.7
vt 1.328558 0.7957084
vt 2.1 0.7
vt 2.1 0.9089804
vt 2.141809 1.66
vt 2.608558 0.9089804
vt 2.608558 1.66

usemtl _defaultMat (Instance)
usemap _defaultMat (Instance)
f 143/216/66 142/215/66 141/214/66
f 142/215/66 143/216/66 144/217/66
f 145/220/41 142/219/41 144/218/41
f 142/219/41 145/220/41 146/221/41
f 147/224/5 142/223/5 146/222/5
f 142/223/5 147/224/5 148/225/5
f 148/225/5 147/224/5 149/226/5
f 149/226/5 147/224/5 150/227/5
f 141/228/5 142/223/5 148/225/5
f 151/230/66 148/214/66 149/229/66
f 148/214/66 151/230/66 152/216/66
f 147/233/67 153/232/67 150/231/67
f 153/232/67 147/233/67 154/234/67
f 148/235/40 143/219/40 141/218/40
f 143/219/40 148/235/40 152/236/40
f 154/237/68 146/221/68 145/220/68
f 146/221/68 154/237/68 147/238/68
f 143/241/1 145/240/1 144/239/1
f 145/240/1 143/241/1 152/242/1
f 145/240/1 152/242/1 154/243/1
f 154/243/1 152/242/1 151/244/1
f 154/243/1 151/244/1 153/245/1
f 150/237/40 151/236/40 149/235/40
f 151/236/40 150/237/40 153/238/40
g (0.0, 0.0, 0.0)

v -0.5 0.9 1.5
v -0.5 0.8 1.5
v -0.5 0.9 2.5
v -0.5 0.8 2.5
v -0.8925788 0.8 2.5
v -0.8925788 0.9 2.5
v -0.8925788 0.8 1.995291
v -0.8925788 0.9 1.995291
vn -0.7836813 0 -0.6211632
vt -1.5 0.9
vt -1.5 0.8
vt -2.5 0.9
vt -2.5 0.8
vt -0.5 0.8
vt -0.8925788 0.8
vt -0.5 0.9
vt -0.8925788 0.9
vt 0.5 -1.5
vt 0.8925788 -2.5
vt 0.8925788 -1.995291
vt 0.5 1.5
vt 0.8925788 1.995291
vt 0.8925788 2.5
vt 1.995291 0.8
vt 1.995291 0.9
vt 2.5 0.8
vt 2.5 0.9
vt 1.5 0.8
vt 1.5 0.9

usemtl _defaultMat (Instance)
usemap _defaultMat (Instance)
f 157/248/5 156/247/5 155/246/5
f 156/247/5 157/248/5 158/249/5
f 157/252/36 159/251/36 158/250/36
f 159/251/36 157/252/36 160/253/36
f 159/255/27 156/254/27 158/66/27
f 156/254/27 159/255/27 161/256/27
f 162/258/4 157/62/4 155/257/4
f 157/62/4 162/258/4 160/259/4
f 159/262/1 162/261/1 161/260/1
f 162/261/1 159/262/1 160/263/1
f 161/260/69 155/265/69 156/264/69
f 155/265/69 161/260/69 162/261/69
g (0.0, 0.0, 0.0)

v 0.5 0.9 1.5
v 0.5 0.8 1.5
v 0.5 0.9 2.5
v 0.5 0.8 2.5
v 0.8925788 0.8 2.5
v 0.8925788 0.9 2.5
v 0.8925788 0.8 1.995291
v 0.8925788 0.9 1.995291
vn 0.7836813 0 -0.6211632
vt -0.5 1.5
vt -0.8925788 2.5
vt -0.8925788 1.995291
vt -0.5 -1.5
vt -0.8925788 -1.995291
vt -0.8925788 -2.5

usemtl _defaultMat (Instance)
usemap _defaultMat (Instance)
f 163/246/1 164/247/1 165/248/1
f 166/249/1 165/248/1 164/247/1
f 166/250/36 167/251/36 165/252/36
f 168/253/36 165/252/36 167/251/36
f 166/63/27 164/266/27 167/267/27
f 169/268/27 167/267/27 164/266/27
f 163/269/4 165/67/4 170/270/4
f 168/271/4 170/270/4 165/67/4
f 169/260/5 170/261/5 167/262/5
f 168/263/5 167/262/5 170/261/5
f 164/264/70 163/265/70 169/260/70
f 170/261/70 169/260/70 163/265/70
