<svg version="1.1" xmlns="http://www.w3.org/2000/svg" xmlns:xlink="http://www.w3.org/1999/xlink" width="59.24572" height="37.31553" viewBox="0,0,59.24572,37.31553"><g transform="translate(-210.37714,-161.34223)"><g data-paper-data="{&quot;isPaintingLayer&quot;:true}" fill="#9966ff" fill-rule="nonzero" stroke="none" stroke-width="0.5" stroke-linecap="butt" stroke-linejoin="miter" stroke-miterlimit="10" stroke-dasharray="" stroke-dashoffset="0" style="mix-blend-mode: normal"><path d="M240.17702,180.54235c1.1941,-1.52991 2.19958,-2.8492 2.91071,-4.28114c-0.00538,-0.09293 -0.00897,-0.18619 -0.01101,-0.27971c-2.35608,-2.01191 -4.91315,-3.67305 -7.67764,-4.52788c-0.14253,-0.04407 -0.29481,-0.09336 -0.45508,-0.14534c0.34222,1.01844 0.77852,2.00908 1.25856,2.95321c1.12247,2.20765 2.48211,4.30034 3.97446,6.28088zM261.21427,175.49515c-0.04891,0.56871 -0.42969,1.01836 -0.95219,1.41022c-0.7902,3.01622 -2.29433,5.61964 -4.25959,7.87422c0.05206,1.77295 0.29926,3.70014 -1.09242,4.33196c-0.03737,0.01697 -0.07491,0.03294 -0.11259,0.04793c3.02567,0.47285 6.99698,1.45075 9.05277,-1.47014c2.26165,-3.21338 -0.98774,-8.45683 -1.94146,-11.56196c-0.23639,-0.21313 -0.46753,-0.42392 -0.69452,-0.63223zM234.08773,180.5811c-0.86474,-1.31639 -1.66265,-2.67457 -2.35731,-4.08356c-0.79506,-1.61264 -1.91224,-3.11138 -2.38752,-4.84103c-0.09502,0.11889 -0.18454,0.24991 -0.26791,0.39399c-1.55964,2.69556 2.49873,6.53814 4.30812,7.98106c0.23188,0.18491 0.4668,0.36812 0.70462,0.54953zM250.48655,176.25143c0.13273,0.14583 0.26465,0.2921 0.39575,0.43874c0.3672,-0.22951 0.72809,-0.47176 1.08881,-0.71436c-0.35505,-0.7762 -1.03789,-1.60179 -1.77035,-2.34959c-0.03552,0.62033 -0.03599,1.23867 0.05572,1.85144c0.0284,0.18977 0.11106,0.45409 0.23007,0.77377zM239.38717,189.75206c-3.37392,-1.67691 -6.53836,-3.7167 -9.30942,-5.9689c-3.22502,-2.62114 -7.03717,-7.23576 -6.22734,-11.81421c-1.34584,0.67373 -2.63735,1.5772 -3.86586,2.80047c-1.04349,1.03905 -1.4769,2.54877 -2.25867,3.7967c-0.74305,1.18613 -1.96803,2.14737 -2.31453,3.50345c-0.39789,1.55721 0.9628,5.99535 2.08743,7.10179c1.2174,1.19772 3.24329,1.62775 5.09586,1.88247c0.26227,-0.45431 0.59608,-0.94051 1.00917,-1.46079c0.53866,-0.67843 1.27849,-0.91667 2.12663,-0.91794v-0.26773h4c1.38071,0 2.5,1.11929 2.5,2.5c0,0.6862 -0.27646,1.30783 -0.72408,1.75958c1.77738,-0.35005 3.5869,-1.2739 5.06869,-1.81778c0.96131,-0.35284 1.89835,-0.71636 2.81213,-1.0971zM229.53677,165.03346c0.35445,-1.46607 0.94149,-2.72185 1.84057,-3.22827c1.7643,-0.99376 4.05887,-0.1084 6.07412,0.08933c3.40696,0.33427 6.42608,1.03726 9.14788,2.47755c0.5384,-0.34859 1.08881,-0.59062 1.65933,-0.74121c1.11663,-0.74389 2.58064,-1.18917 4.47177,-1.22349c1.94725,-0.03534 4.16117,0.30646 5.62043,1.59626c1.36603,1.20739 2.10187,2.71005 2.44837,4.31997c1.82085,1.57014 3.49245,3.35367 5.32568,5.11597c0.23834,0.69591 3.49892,10.03454 3.49795,10.76552c-0.00404,3.04312 -0.80826,5.2513 -2.16578,6.81852c0.77335,0.74027 0.77335,1.88376 0.77335,1.88376l-1.41147,3.25058c-1.54538,0.72093 -2.96336,1.8315 -4.63613,2.1628c-6.66815,1.32065 -12.49855,-1.3925 -17.40082,-5.47741c-2.15824,1.04329 -4.36366,1.93494 -6.49825,2.7048c-1.70387,0.61452 -3.3223,1.59629 -5.11957,1.82132c-0.17888,0.0224 -6.36672,0.45755 -9.52778,-1.25213c-3.47384,-0.352 -6.89627,-0.64768 -9.65667,-3.39401c-2.43087,-2.41848 -4.1495,-8.43557 -3.44213,-11.77023c0.40151,-1.89277 1.92572,-3.35709 2.93156,-5.00999c0.96746,-1.58984 1.66863,-3.40357 2.98741,-4.71673c1.31878,-1.31316 3.1404,-1.99848 4.72945,-2.96725c1.59552,-0.97272 3.04014,-2.2985 4.82345,-2.85674c1.13163,-0.35424 2.32776,-0.37191 3.5273,-0.3689zM247.88014,185.05952c-0.07708,-0.19909 -0.14355,-0.40498 -0.20283,-0.61545c-1.03055,0.48729 -2.07477,0.9439 -3.13351,1.37088c0.28415,0.30602 0.5737,0.60983 0.86851,0.91009c0.84483,-0.51743 1.66705,-1.07013 2.46782,-1.66552z"/></g></g></svg>